<svg viewBox="0 0 20 20" fill="none" xmlns="http://www.w3.org/2000/svg">
<rect width="20" height="20" rx="10" fill="#F47779"/>
<path fill-rule="evenodd" clip-rule="evenodd" d="M14.127 7.28816C14.5175 6.89764 14.5175 6.26447 14.127 5.87395C13.7365 5.48342 13.1033 5.48342 12.7128 5.87395L10.001 8.58578L7.28914 5.87395C6.89861 5.48342 6.26545 5.48342 5.87492 5.87395C5.4844 6.26447 5.4844 6.89764 5.87492 7.28816L8.58676 9.99999L5.87492 12.7118C5.4844 13.1024 5.4844 13.7355 5.87492 14.126C6.26545 14.5166 6.89861 14.5166 7.28914 14.126L10.001 11.4142L12.7128 14.126C13.1033 14.5166 13.7365 14.5166 14.127 14.126C14.5175 13.7355 14.5175 13.1024 14.127 12.7118L11.4152 9.99999L14.127 7.28816Z" fill="white"/>
</svg>
